<svg width="227" height="51" viewBox="0 0 227 51" fill="none" xmlns="http://www.w3.org/2000/svg">
<path d="M87.5483 24.5805C87.5483 26.5619 87.2034 28.3929 86.5137 30.0734C85.8364 31.7413 84.8771 33.1898 83.6355 34.4188C82.394 35.6353 80.8953 36.5884 79.1396 37.2781C77.3964 37.9553 75.4589 38.2939 73.3269 38.2939H62.6797V10.8858H73.3269C75.4589 10.8858 77.3964 11.2307 79.1396 11.9205C80.8953 12.6102 82.394 13.5633 83.6355 14.7798C84.8771 15.9962 85.8364 17.4447 86.5137 19.1252C87.2034 20.7931 87.5483 22.6116 87.5483 24.5805ZM81.0396 24.5805C81.0396 23.2261 80.864 22.0033 80.5128 20.9123C80.1617 19.8212 79.6538 18.8995 78.9891 18.147C78.337 17.382 77.5344 16.7989 76.5813 16.3976C75.6282 15.9837 74.5434 15.7768 73.3269 15.7768H69.0755V33.403H73.3269C74.5434 33.403 75.6282 33.2023 76.5813 32.801C77.5344 32.3872 78.337 31.804 78.9891 31.0516C79.6538 30.2866 80.1617 29.3586 80.5128 28.2675C80.864 27.1764 81.0396 25.9474 81.0396 24.5805Z" fill="black"/>
<path d="M102.537 26.1983C102.537 25.7342 102.474 25.2828 102.348 24.8438C102.236 24.4049 102.041 24.0161 101.765 23.6775C101.502 23.3264 101.151 23.0442 100.712 22.831C100.273 22.6178 99.7399 22.5112 99.1128 22.5112C98.0092 22.5112 97.1439 22.831 96.5169 23.4706C95.8898 24.0977 95.476 25.0069 95.2753 26.1983H102.537ZM95.2001 29.5843C95.3882 31.2146 95.8836 32.3997 96.6862 33.1396C97.4888 33.867 98.5234 34.2307 99.7901 34.2307C100.467 34.2307 101.05 34.1492 101.54 33.9862C102.029 33.8231 102.461 33.6413 102.837 33.4406C103.226 33.24 103.577 33.0581 103.891 32.8951C104.217 32.7321 104.556 32.6505 104.907 32.6505C105.371 32.6505 105.722 32.8198 105.96 33.1585L107.653 35.2465C107.051 35.9363 106.399 36.5006 105.697 36.9395C105.007 37.3659 104.292 37.7045 103.552 37.9553C102.825 38.1936 102.091 38.3567 101.351 38.4444C100.624 38.5448 99.928 38.5949 99.2633 38.5949C97.8964 38.5949 96.6109 38.3755 95.407 37.9365C94.2156 37.4851 93.1685 36.8204 92.2655 35.9425C91.3751 35.0647 90.6666 33.9736 90.1398 32.6694C89.6257 31.3651 89.3686 29.8477 89.3686 28.117C89.3686 26.8128 89.588 25.5775 90.027 24.4112C90.4784 23.2449 91.118 22.2228 91.9457 21.3449C92.786 20.4671 93.7955 19.7711 94.9743 19.2569C96.1657 18.7427 97.5076 18.4856 99 18.4856C100.292 18.4856 101.471 18.6863 102.537 19.0876C103.615 19.4889 104.537 20.072 105.302 20.837C106.079 21.602 106.681 22.5426 107.108 23.6587C107.547 24.7623 107.766 26.0164 107.766 27.421C107.766 27.8599 107.747 28.2173 107.71 28.4932C107.672 28.7691 107.603 28.9886 107.503 29.1516C107.402 29.3147 107.264 29.4275 107.089 29.4902C106.926 29.5529 106.713 29.5843 106.449 29.5843H95.2001Z" fill="black"/>
<path d="M123.081 23.0568C122.93 23.295 122.767 23.4643 122.592 23.5647C122.429 23.665 122.216 23.7152 121.952 23.7152C121.676 23.7152 121.4 23.6587 121.124 23.5459C120.849 23.4205 120.548 23.2888 120.222 23.1508C119.908 23.0129 119.551 22.8875 119.149 22.7746C118.748 22.6492 118.29 22.5865 117.776 22.5865C117.036 22.5865 116.466 22.7307 116.064 23.0191C115.675 23.295 115.481 23.6838 115.481 24.1854C115.481 24.5491 115.606 24.8501 115.857 25.0884C116.121 25.3267 116.466 25.5399 116.892 25.728C117.318 25.9035 117.801 26.0728 118.34 26.2359C118.88 26.3989 119.431 26.5808 119.996 26.7814C120.56 26.9821 121.112 27.2203 121.651 27.4962C122.19 27.7596 122.673 28.0919 123.1 28.4932C123.526 28.882 123.865 29.3586 124.115 29.9229C124.379 30.4872 124.511 31.1645 124.511 31.9545C124.511 32.9202 124.335 33.8106 123.984 34.6257C123.633 35.4409 123.106 36.1432 122.404 36.7326C121.714 37.322 120.855 37.7798 119.826 38.1058C118.811 38.4319 117.638 38.5949 116.309 38.5949C115.644 38.5949 114.979 38.5322 114.315 38.4068C113.65 38.2814 113.004 38.1121 112.377 37.8989C111.763 37.6857 111.192 37.4349 110.665 37.1465C110.139 36.8455 109.687 36.5257 109.311 36.1871L110.665 34.0426C110.816 33.7918 111.004 33.5974 111.23 33.4594C111.468 33.3089 111.769 33.2337 112.133 33.2337C112.471 33.2337 112.772 33.3089 113.036 33.4594C113.311 33.6099 113.606 33.773 113.92 33.9485C114.233 34.1241 114.597 34.2871 115.011 34.4376C115.437 34.5881 115.97 34.6634 116.61 34.6634C117.061 34.6634 117.444 34.6195 117.757 34.5317C118.071 34.4314 118.322 34.2997 118.51 34.1366C118.698 33.9736 118.836 33.7918 118.924 33.5911C119.011 33.3905 119.055 33.1835 119.055 32.9703C119.055 32.5816 118.924 32.2618 118.66 32.011C118.397 31.7601 118.052 31.5469 117.626 31.3714C117.199 31.1833 116.71 31.014 116.158 30.8635C115.619 30.7004 115.067 30.5186 114.503 30.3179C113.939 30.1173 113.38 29.879 112.829 29.6031C112.289 29.3147 111.807 28.9573 111.38 28.5309C110.954 28.0919 110.609 27.5589 110.346 26.9319C110.082 26.3049 109.951 25.5461 109.951 24.6557C109.951 23.828 110.107 23.0442 110.421 22.3043C110.747 21.5519 111.23 20.8935 111.869 20.3291C112.509 19.7648 113.311 19.3196 114.277 18.9935C115.243 18.6549 116.371 18.4856 117.663 18.4856C118.365 18.4856 119.043 18.5483 119.695 18.6737C120.359 18.7991 120.98 18.9747 121.557 19.2004C122.134 19.4262 122.661 19.6958 123.137 20.0093C123.614 20.3103 124.034 20.6426 124.398 21.0063L123.081 23.0568Z" fill="black"/>
<path d="M133.401 18.7866V38.2939H127.57V18.7866H133.401ZM134.003 13.4442C134.003 13.9082 133.909 14.3471 133.721 14.761C133.533 15.1623 133.276 15.5197 132.95 15.8332C132.624 16.1342 132.241 16.3787 131.802 16.5669C131.376 16.7424 130.918 16.8302 130.429 16.8302C129.952 16.8302 129.507 16.7424 129.093 16.5669C128.68 16.3787 128.31 16.1342 127.984 15.8332C127.67 15.5197 127.419 15.1623 127.231 14.761C127.056 14.3471 126.968 13.9082 126.968 13.4442C126.968 12.9676 127.056 12.5224 127.231 12.1086C127.419 11.6947 127.67 11.331 127.984 11.0175C128.31 10.704 128.68 10.4594 129.093 10.2839C129.507 10.1083 129.952 10.0205 130.429 10.0205C130.918 10.0205 131.376 10.1083 131.802 10.2839C132.241 10.4594 132.624 10.704 132.95 11.0175C133.276 11.331 133.533 11.6947 133.721 12.1086C133.909 12.5224 134.003 12.9676 134.003 13.4442Z" fill="black"/>
<path d="M144.899 27.5151C145.864 27.5151 146.56 27.2768 146.987 26.8002C147.426 26.3111 147.645 25.6841 147.645 24.9191C147.645 24.129 147.426 23.5082 146.987 23.0568C146.56 22.6053 145.864 22.3796 144.899 22.3796C143.933 22.3796 143.231 22.6053 142.792 23.0568C142.366 23.5082 142.152 24.129 142.152 24.9191C142.152 25.2953 142.202 25.6402 142.303 25.9537C142.416 26.2672 142.585 26.5431 142.811 26.7814C143.036 27.0071 143.319 27.189 143.657 27.3269C144.008 27.4523 144.422 27.5151 144.899 27.5151ZM149.413 39.0088C149.413 38.5448 149.207 38.2124 148.793 38.0118C148.379 37.7986 147.84 37.6481 147.175 37.5603C146.51 37.4725 145.764 37.4224 144.936 37.4098C144.121 37.3847 143.306 37.3346 142.491 37.2593C142.127 37.5101 141.826 37.7923 141.588 38.1058C141.362 38.4068 141.249 38.7517 141.249 39.1405C141.249 39.4164 141.306 39.6672 141.419 39.8929C141.544 40.1186 141.757 40.313 142.058 40.4761C142.359 40.6391 142.761 40.7645 143.262 40.8523C143.776 40.9526 144.422 41.0028 145.2 41.0028C146.04 41.0028 146.73 40.9526 147.269 40.8523C147.808 40.752 148.235 40.614 148.548 40.4384C148.874 40.2629 149.1 40.0497 149.225 39.7989C149.351 39.5606 149.413 39.2972 149.413 39.0088ZM155.17 19.3886V21.5142C155.17 21.8403 155.076 22.0974 154.888 22.2855C154.712 22.4736 154.405 22.6178 153.966 22.7182L152.555 23.038C152.63 23.3139 152.687 23.596 152.724 23.8845C152.774 24.1729 152.8 24.4739 152.8 24.7874C152.8 25.7656 152.593 26.6435 152.179 27.421C151.777 28.1985 151.219 28.8632 150.505 29.415C149.802 29.9543 148.968 30.3744 148.003 30.6754C147.037 30.9638 146.002 31.108 144.899 31.108C144.598 31.108 144.303 31.1017 144.015 31.0892C143.726 31.0641 143.444 31.0265 143.168 30.9763C142.742 31.2397 142.529 31.5344 142.529 31.8605C142.529 32.1865 142.704 32.4248 143.055 32.5753C143.406 32.7133 143.87 32.8136 144.447 32.8763C145.024 32.9264 145.676 32.9641 146.404 32.9892C147.144 33.0017 147.896 33.0456 148.661 33.1208C149.426 33.1835 150.172 33.2964 150.9 33.4594C151.639 33.6225 152.298 33.8858 152.875 34.2495C153.452 34.6132 153.916 35.1023 154.267 35.7168C154.618 36.3188 154.794 37.09 154.794 38.0306C154.794 38.9085 154.58 39.7675 154.154 40.6077C153.728 41.448 153.101 42.1942 152.273 42.8463C151.445 43.4984 150.429 44.0189 149.225 44.4076C148.021 44.8089 146.642 45.0096 145.087 45.0096C143.557 45.0096 142.234 44.8654 141.118 44.5769C140.014 44.2885 139.092 43.906 138.352 43.4294C137.625 42.9654 137.086 42.4262 136.735 41.8117C136.383 41.1972 136.208 40.5576 136.208 39.8929C136.208 39.0276 136.459 38.3065 136.96 37.7296C137.462 37.1527 138.164 36.6887 139.067 36.3376C138.591 36.0491 138.214 35.6792 137.939 35.2277C137.663 34.7762 137.525 34.1931 137.525 33.4782C137.525 33.1898 137.575 32.8888 137.675 32.5753C137.776 32.2492 137.932 31.9357 138.145 31.6347C138.371 31.3212 138.647 31.0265 138.973 30.7506C139.299 30.4747 139.688 30.2302 140.139 30.017C139.124 29.4777 138.321 28.7691 137.732 27.8913C137.142 27.0009 136.848 25.9663 136.848 24.7874C136.848 23.8092 137.054 22.9314 137.468 22.1538C137.882 21.3637 138.446 20.6991 139.161 20.1598C139.889 19.608 140.741 19.1879 141.72 18.8995C142.698 18.5985 143.758 18.448 144.899 18.448C146.554 18.448 148.021 18.7615 149.301 19.3886H155.17Z" fill="black"/>
<path d="M162.982 20.8935C163.359 20.5423 163.747 20.2163 164.149 19.9153C164.55 19.6143 164.976 19.3635 165.428 19.1628C165.892 18.9496 166.387 18.7866 166.914 18.6737C167.453 18.5483 168.036 18.4856 168.663 18.4856C169.729 18.4856 170.67 18.6737 171.485 19.05C172.313 19.4136 173.009 19.9278 173.573 20.5925C174.137 21.2446 174.564 22.0284 174.852 22.9439C175.141 23.8468 175.285 24.8313 175.285 25.8973V38.2939H169.453V25.8973C169.453 24.9442 169.234 24.2043 168.795 23.6775C168.356 23.1383 167.71 22.8687 166.857 22.8687C166.218 22.8687 165.616 23.0066 165.052 23.2825C164.5 23.5459 163.961 23.9095 163.434 24.3736V38.2939H157.602V18.7866H161.214C161.941 18.7866 162.418 19.1127 162.644 19.7648L162.982 20.8935Z" fill="black"/>
<path d="M191.192 26.1983C191.192 25.7342 191.13 25.2828 191.004 24.8438C190.891 24.4049 190.697 24.0161 190.421 23.6775C190.158 23.3264 189.807 23.0442 189.368 22.831C188.929 22.6178 188.396 22.5112 187.769 22.5112C186.665 22.5112 185.8 22.831 185.173 23.4706C184.546 24.0977 184.132 25.0069 183.931 26.1983H191.192ZM183.856 29.5843C184.044 31.2146 184.539 32.3997 185.342 33.1396C186.145 33.867 187.179 34.2307 188.446 34.2307C189.123 34.2307 189.706 34.1492 190.195 33.9862C190.684 33.8231 191.117 33.6413 191.493 33.4406C191.882 33.24 192.233 33.0581 192.547 32.8951C192.873 32.7321 193.211 32.6505 193.563 32.6505C194.027 32.6505 194.378 32.8198 194.616 33.1585L196.309 35.2465C195.707 35.9363 195.055 36.5006 194.353 36.9395C193.663 37.3659 192.948 37.7045 192.208 37.9553C191.481 38.1936 190.747 38.3567 190.007 38.4444C189.28 38.5448 188.584 38.5949 187.919 38.5949C186.552 38.5949 185.267 38.3755 184.063 37.9365C182.871 37.4851 181.824 36.8204 180.921 35.9425C180.031 35.0647 179.322 33.9736 178.796 32.6694C178.281 31.3651 178.024 29.8477 178.024 28.117C178.024 26.8128 178.244 25.5775 178.683 24.4112C179.134 23.2449 179.774 22.2228 180.602 21.3449C181.442 20.4671 182.451 19.7711 183.63 19.2569C184.822 18.7427 186.163 18.4856 187.656 18.4856C188.947 18.4856 190.126 18.6863 191.192 19.0876C192.271 19.4889 193.193 20.072 193.958 20.837C194.735 21.602 195.337 22.5426 195.763 23.6587C196.202 24.7623 196.422 26.0164 196.422 27.421C196.422 27.8599 196.403 28.2173 196.365 28.4932C196.328 28.7691 196.259 28.9886 196.158 29.1516C196.058 29.3147 195.92 29.4275 195.745 29.4902C195.582 29.5529 195.368 29.5843 195.105 29.5843H183.856Z" fill="black"/>
<path d="M204.795 21.7964C205.397 20.743 206.087 19.9153 206.865 19.3133C207.655 18.7113 208.558 18.4104 209.573 18.4104C210.451 18.4104 211.166 18.6173 211.718 19.0311L211.342 23.3201C211.279 23.596 211.172 23.7841 211.022 23.8845C210.884 23.9848 210.689 24.035 210.439 24.035C210.338 24.035 210.207 24.0287 210.044 24.0161C209.881 24.0036 209.711 23.9911 209.536 23.9785C209.36 23.9534 209.178 23.9346 208.99 23.9221C208.815 23.897 208.652 23.8845 208.501 23.8845C207.648 23.8845 206.965 24.1102 206.451 24.5617C205.949 25.0131 205.523 25.6402 205.171 26.4428V38.2939H199.34V18.7866H202.801C203.09 18.7866 203.328 18.8117 203.516 18.8618C203.717 18.912 203.88 18.9935 204.005 19.1064C204.143 19.2067 204.243 19.3447 204.306 19.5202C204.381 19.6958 204.444 19.909 204.494 20.1598L204.795 21.7964Z" fill="black"/>
<path d="M219.161 21.7964C219.763 20.743 220.453 19.9153 221.23 19.3133C222.02 18.7113 222.923 18.4104 223.939 18.4104C224.817 18.4104 225.532 18.6173 226.084 19.0311L225.707 23.3201C225.645 23.596 225.538 23.7841 225.387 23.8845C225.25 23.9848 225.055 24.035 224.804 24.035C224.704 24.035 224.572 24.0287 224.409 24.0161C224.246 24.0036 224.077 23.9911 223.901 23.9785C223.726 23.9534 223.544 23.9346 223.356 23.9221C223.18 23.897 223.017 23.8845 222.867 23.8845C222.014 23.8845 221.331 24.1102 220.816 24.5617C220.315 25.0131 219.888 25.6402 219.537 26.4428V38.2939H213.706V18.7866H217.167C217.455 18.7866 217.694 18.8117 217.882 18.8618C218.082 18.912 218.245 18.9935 218.371 19.1064C218.509 19.2067 218.609 19.3447 218.672 19.5202C218.747 19.6958 218.81 19.909 218.86 20.1598L219.161 21.7964Z" fill="black"/>
<g clip-path="url(#clip0_841_82)">
<path fill-rule="evenodd" clip-rule="evenodd" d="M27.4858 18.0196C27.6314 17.8736 27.8044 17.7578 27.9949 17.6788C28.1853 17.5998 28.3895 17.5591 28.5957 17.5591C28.8019 17.5591 29.006 17.5998 29.1965 17.6788C29.3869 17.7578 29.5599 17.8736 29.7056 18.0196L35.976 24.2901C36.122 24.4357 36.2378 24.6087 36.3168 24.7991C36.3959 24.9896 36.4365 25.1937 36.4365 25.3999C36.4365 25.6061 36.3959 25.8103 36.3168 26.0008C36.2378 26.1912 36.122 26.3642 35.976 26.5098L29.7056 32.7803C29.4112 33.0746 29.012 33.24 28.5957 33.24C28.1794 33.24 27.7802 33.0746 27.4858 32.7803C27.1915 32.4859 27.0261 32.0867 27.0261 31.6704C27.0261 31.2541 27.1915 30.8549 27.4858 30.5605L32.6495 25.3999L27.4858 20.2394C27.3398 20.0937 27.224 19.9208 27.145 19.7303C27.0659 19.5399 27.0253 19.3357 27.0253 19.1295C27.0253 18.9233 27.0659 18.7191 27.145 18.5287C27.224 18.3382 27.3398 18.1652 27.4858 18.0196ZM23.4351 18.0196C23.2895 17.8736 23.1165 17.7578 22.926 17.6788C22.7356 17.5998 22.5314 17.5591 22.3252 17.5591C22.119 17.5591 21.9149 17.5998 21.7244 17.6788C21.534 17.7578 21.361 17.8736 21.2154 18.0196L14.9449 24.2901C14.7989 24.4357 14.6831 24.6087 14.6041 24.7991C14.5251 24.9896 14.4844 25.1937 14.4844 25.3999C14.4844 25.6061 14.5251 25.8103 14.6041 26.0008C14.6831 26.1912 14.7989 26.3642 14.9449 26.5098L21.2154 32.7803C21.5097 33.0746 21.909 33.24 22.3252 33.24C22.7415 33.24 23.1407 33.0746 23.4351 32.7803C23.7295 32.4859 23.8948 32.0867 23.8948 31.6704C23.8948 31.2541 23.7295 30.8549 23.4351 30.5605L18.2714 25.3999L23.4351 20.2394C23.5811 20.0937 23.6969 19.9208 23.7759 19.7303C23.855 19.5399 23.8956 19.3357 23.8956 19.1295C23.8956 18.9233 23.855 18.7191 23.7759 18.5287C23.6969 18.3382 23.5811 18.1652 23.4351 18.0196Z" fill="#4871FD"/>
<path d="M9.78607 0.318359H41.1383C42.8013 0.318359 44.3962 0.978994 45.5722 2.15493C46.7481 3.33087 47.4088 4.92578 47.4088 6.58881V44.2115C47.4088 45.8745 46.7481 47.4694 45.5722 48.6454C44.3962 49.8213 42.8013 50.4819 41.1383 50.4819H9.78607C8.12305 50.4819 6.52813 49.8213 5.3522 48.6454C4.17626 47.4694 3.51563 45.8745 3.51562 44.2115V41.0763H6.65085V44.2115C6.65085 45.043 6.98117 45.8405 7.56913 46.4284C8.1571 47.0164 8.95456 47.3467 9.78607 47.3467H41.1383C41.9698 47.3467 42.7673 47.0164 43.3552 46.4284C43.9432 45.8405 44.2735 45.043 44.2735 44.2115V6.58881C44.2735 5.75729 43.9432 4.95984 43.3552 4.37187C42.7673 3.7839 41.9698 3.45358 41.1383 3.45358H9.78607C8.95456 3.45358 8.1571 3.7839 7.56913 4.37187C6.98117 4.95984 6.65085 5.75729 6.65085 6.58881V9.72403H3.51562V6.58881C3.51562 4.92578 4.17626 3.33087 5.3522 2.15493C6.52813 0.978994 8.12305 0.318359 9.78607 0.318359V0.318359Z" fill="#4871FD"/>
<path d="M3.51413 15.9946V14.427C3.51413 14.0112 3.67929 13.6125 3.97327 13.3185C4.26726 13.0245 4.66598 12.8594 5.08174 12.8594C5.4975 12.8594 5.89623 13.0245 6.19021 13.3185C6.48419 13.6125 6.64935 14.0112 6.64935 14.427V15.9946H8.21696C8.63272 15.9946 9.03145 16.1598 9.32543 16.4537C9.61942 16.7477 9.78458 17.1465 9.78458 17.5622C9.78458 17.978 9.61942 18.3767 9.32543 18.6707C9.03145 18.9647 8.63272 19.1298 8.21696 19.1298H1.94652C1.53076 19.1298 1.13203 18.9647 0.838049 18.6707C0.544065 18.3767 0.378906 17.978 0.378906 17.5622C0.378906 17.1465 0.544065 16.7477 0.838049 16.4537C1.13203 16.1598 1.53076 15.9946 1.94652 15.9946H3.51413ZM3.51413 25.4003V23.8327C3.51413 23.4169 3.67929 23.0182 3.97327 22.7242C4.26726 22.4302 4.66598 22.265 5.08174 22.265C5.4975 22.265 5.89623 22.4302 6.19021 22.7242C6.48419 23.0182 6.64935 23.4169 6.64935 23.8327V25.4003H8.21696C8.63272 25.4003 9.03145 25.5654 9.32543 25.8594C9.61942 26.1534 9.78458 26.5521 9.78458 26.9679C9.78458 27.3836 9.61942 27.7824 9.32543 28.0764C9.03145 28.3703 8.63272 28.5355 8.21696 28.5355H1.94652C1.53076 28.5355 1.13203 28.3703 0.838049 28.0764C0.544065 27.7824 0.378906 27.3836 0.378906 26.9679C0.378906 26.5521 0.544065 26.1534 0.838049 25.8594C1.13203 25.5654 1.53076 25.4003 1.94652 25.4003H3.51413ZM3.51413 34.8059V33.2383C3.51413 32.8226 3.67929 32.4238 3.97327 32.1299C4.26726 31.8359 4.66598 31.6707 5.08174 31.6707C5.4975 31.6707 5.89623 31.8359 6.19021 32.1299C6.48419 32.4238 6.64935 32.8226 6.64935 33.2383V34.8059H8.21696C8.63272 34.8059 9.03145 34.9711 9.32543 35.2651C9.61942 35.5591 9.78458 35.9578 9.78458 36.3736C9.78458 36.7893 9.61942 37.188 9.32543 37.482C9.03145 37.776 8.63272 37.9412 8.21696 37.9412H1.94652C1.53076 37.9412 1.13203 37.776 0.838049 37.482C0.544065 37.188 0.378906 36.7893 0.378906 36.3736C0.378906 35.9578 0.544065 35.5591 0.838049 35.2651C1.13203 34.9711 1.53076 34.8059 1.94652 34.8059H3.51413Z" fill="#4871FD"/>
</g>
<defs>
<clipPath id="clip0_841_82">
<rect width="50.1636" height="50.1636" fill="white" transform="translate(0.378906 0.318359)"/>
</clipPath>
</defs>
</svg>
