<svg width="277" height="51" viewBox="0 0 277 51" fill="none" xmlns="http://www.w3.org/2000/svg">
<path d="M84.2793 23.3663C84.2793 25.2623 83.9493 27.0143 83.2893 28.6223C82.6413 30.2183 81.7233 31.6043 80.5353 32.7803C79.3473 33.9443 77.9133 34.8563 76.2333 35.5163C74.5653 36.1643 72.7113 36.4883 70.6713 36.4883H60.4833V10.2623H70.6713C72.7113 10.2623 74.5653 10.5923 76.2333 11.2523C77.9133 11.9123 79.3473 12.8243 80.5353 13.9883C81.7233 15.1523 82.6413 16.5383 83.2893 18.1463C83.9493 19.7423 84.2793 21.4823 84.2793 23.3663ZM78.0513 23.3663C78.0513 22.0703 77.8833 20.9003 77.5473 19.8563C77.2113 18.8123 76.7253 17.9303 76.0893 17.2103C75.4653 16.4783 74.6973 15.9203 73.7853 15.5363C72.8733 15.1403 71.8353 14.9423 70.6713 14.9423H66.6033V31.8083H70.6713C71.8353 31.8083 72.8733 31.6163 73.7853 31.2323C74.6973 30.8363 75.4653 30.2783 76.0893 29.5583C76.7253 28.8263 77.2113 27.9383 77.5473 26.8943C77.8833 25.8503 78.0513 24.6743 78.0513 23.3663ZM98.6211 24.9143C98.6211 24.4703 98.5611 24.0383 98.4411 23.6183C98.3331 23.1983 98.1471 22.8263 97.8831 22.5023C97.6311 22.1663 97.2951 21.8963 96.8751 21.6923C96.4551 21.4883 95.9451 21.3863 95.3451 21.3863C94.2891 21.3863 93.4611 21.6923 92.8611 22.3043C92.2611 22.9043 91.8651 23.7743 91.6731 24.9143H98.6211ZM91.6011 28.1543C91.7811 29.7143 92.2551 30.8483 93.0231 31.5563C93.7911 32.2523 94.7811 32.6003 95.9931 32.6003C96.6411 32.6003 97.1991 32.5223 97.6671 32.3663C98.1351 32.2103 98.5491 32.0363 98.9091 31.8443C99.2811 31.6523 99.6171 31.4783 99.9171 31.3223C100.229 31.1663 100.553 31.0883 100.889 31.0883C101.333 31.0883 101.669 31.2503 101.897 31.5743L103.517 33.5723C102.941 34.2323 102.317 34.7723 101.645 35.1923C100.985 35.6003 100.301 35.9243 99.5931 36.1643C98.8971 36.3923 98.1951 36.5483 97.4871 36.6323C96.7911 36.7283 96.1251 36.7763 95.4891 36.7763C94.1811 36.7763 92.9511 36.5663 91.7991 36.1463C90.6591 35.7143 89.6571 35.0783 88.7931 34.2383C87.9411 33.3983 87.2631 32.3543 86.7591 31.1063C86.2671 29.8583 86.0211 28.4063 86.0211 26.7503C86.0211 25.5023 86.2311 24.3203 86.6511 23.2043C87.0831 22.0883 87.6951 21.1103 88.4871 20.2703C89.2911 19.4303 90.2571 18.7643 91.3851 18.2723C92.5251 17.7803 93.8091 17.5343 95.2371 17.5343C96.4731 17.5343 97.6011 17.7263 98.6211 18.1103C99.6531 18.4943 100.535 19.0523 101.267 19.7843C102.011 20.5163 102.587 21.4163 102.995 22.4843C103.415 23.5403 103.625 24.7403 103.625 26.0843C103.625 26.5043 103.607 26.8463 103.571 27.1103C103.535 27.3743 103.469 27.5843 103.373 27.7403C103.277 27.8963 103.145 28.0043 102.977 28.0643C102.821 28.1243 102.617 28.1543 102.365 28.1543H91.6011ZM118.279 21.9083C118.135 22.1363 117.979 22.2983 117.811 22.3943C117.655 22.4903 117.451 22.5383 117.199 22.5383C116.935 22.5383 116.671 22.4843 116.407 22.3763C116.143 22.2563 115.855 22.1303 115.543 21.9983C115.243 21.8663 114.901 21.7463 114.517 21.6383C114.133 21.5183 113.695 21.4583 113.203 21.4583C112.495 21.4583 111.949 21.5963 111.565 21.8723C111.193 22.1363 111.007 22.5083 111.007 22.9883C111.007 23.3363 111.127 23.6243 111.367 23.8523C111.619 24.0803 111.949 24.2843 112.357 24.4643C112.765 24.6323 113.227 24.7943 113.743 24.9503C114.259 25.1063 114.787 25.2803 115.327 25.4723C115.867 25.6643 116.395 25.8923 116.911 26.1563C117.427 26.4083 117.889 26.7263 118.297 27.1103C118.705 27.4823 119.029 27.9383 119.269 28.4783C119.521 29.0183 119.647 29.6663 119.647 30.4223C119.647 31.3463 119.479 32.1983 119.143 32.9783C118.807 33.7583 118.303 34.4303 117.631 34.9943C116.971 35.5583 116.149 35.9963 115.165 36.3083C114.193 36.6203 113.071 36.7763 111.799 36.7763C111.163 36.7763 110.527 36.7163 109.891 36.5963C109.255 36.4763 108.637 36.3143 108.037 36.1103C107.449 35.9063 106.903 35.6663 106.399 35.3903C105.895 35.1023 105.463 34.7963 105.103 34.4723L106.399 32.4203C106.543 32.1803 106.723 31.9943 106.939 31.8623C107.167 31.7183 107.455 31.6463 107.803 31.6463C108.127 31.6463 108.415 31.7183 108.667 31.8623C108.931 32.0063 109.213 32.1623 109.513 32.3303C109.813 32.4983 110.161 32.6543 110.557 32.7983C110.965 32.9423 111.475 33.0143 112.087 33.0143C112.519 33.0143 112.885 32.9723 113.185 32.8883C113.485 32.7923 113.725 32.6663 113.905 32.5103C114.085 32.3543 114.217 32.1803 114.301 31.9883C114.385 31.7963 114.427 31.5983 114.427 31.3943C114.427 31.0223 114.301 30.7163 114.049 30.4763C113.797 30.2363 113.467 30.0323 113.059 29.8643C112.651 29.6843 112.183 29.5223 111.655 29.3783C111.139 29.2223 110.611 29.0483 110.071 28.8563C109.531 28.6643 108.997 28.4363 108.469 28.1723C107.953 27.8963 107.491 27.5543 107.083 27.1463C106.675 26.7263 106.345 26.2163 106.093 25.6163C105.841 25.0163 105.715 24.2903 105.715 23.4383C105.715 22.6463 105.865 21.8963 106.165 21.1883C106.477 20.4683 106.939 19.8383 107.551 19.2983C108.163 18.7583 108.931 18.3323 109.855 18.0203C110.779 17.6963 111.859 17.5343 113.095 17.5343C113.767 17.5343 114.415 17.5943 115.039 17.7143C115.675 17.8343 116.269 18.0023 116.821 18.2183C117.373 18.4343 117.877 18.6923 118.333 18.9923C118.789 19.2803 119.191 19.5983 119.539 19.9463L118.279 21.9083ZM128.155 17.8223V36.4883H122.575V17.8223H128.155ZM128.731 12.7103C128.731 13.1543 128.641 13.5743 128.461 13.9703C128.281 14.3543 128.035 14.6963 127.723 14.9963C127.411 15.2843 127.045 15.5183 126.625 15.6983C126.217 15.8663 125.779 15.9503 125.311 15.9503C124.855 15.9503 124.429 15.8663 124.033 15.6983C123.637 15.5183 123.283 15.2843 122.971 14.9963C122.671 14.6963 122.431 14.3543 122.251 13.9703C122.083 13.5743 121.999 13.1543 121.999 12.7103C121.999 12.2543 122.083 11.8283 122.251 11.4323C122.431 11.0363 122.671 10.6883 122.971 10.3883C123.283 10.0883 123.637 9.85428 124.033 9.68628C124.429 9.51828 124.855 9.43428 125.311 9.43428C125.779 9.43428 126.217 9.51828 126.625 9.68628C127.045 9.85428 127.411 10.0883 127.723 10.3883C128.035 10.6883 128.281 11.0363 128.461 11.4323C128.641 11.8283 128.731 12.2543 128.731 12.7103ZM139.156 26.1743C140.08 26.1743 140.746 25.9463 141.154 25.4903C141.574 25.0223 141.784 24.4223 141.784 23.6903C141.784 22.9343 141.574 22.3403 141.154 21.9083C140.746 21.4763 140.08 21.2603 139.156 21.2603C138.232 21.2603 137.56 21.4763 137.14 21.9083C136.732 22.3403 136.528 22.9343 136.528 23.6903C136.528 24.0503 136.576 24.3803 136.672 24.6803C136.78 24.9803 136.942 25.2443 137.158 25.4723C137.374 25.6883 137.644 25.8623 137.968 25.9943C138.304 26.1143 138.7 26.1743 139.156 26.1743ZM143.476 37.1723C143.476 36.7283 143.278 36.4103 142.882 36.2183C142.486 36.0143 141.97 35.8703 141.334 35.7863C140.698 35.7023 139.984 35.6543 139.192 35.6423C138.412 35.6183 137.632 35.5703 136.852 35.4983C136.504 35.7383 136.216 36.0083 135.988 36.3083C135.772 36.5963 135.664 36.9263 135.664 37.2983C135.664 37.5623 135.718 37.8023 135.826 38.0183C135.946 38.2343 136.15 38.4203 136.438 38.5763C136.726 38.7323 137.11 38.8523 137.59 38.9363C138.082 39.0323 138.7 39.0803 139.444 39.0803C140.248 39.0803 140.908 39.0323 141.424 38.9363C141.94 38.8403 142.348 38.7083 142.648 38.5403C142.96 38.3723 143.176 38.1683 143.296 37.9283C143.416 37.7003 143.476 37.4483 143.476 37.1723ZM148.984 18.3983V20.4323C148.984 20.7443 148.894 20.9903 148.714 21.1703C148.546 21.3503 148.252 21.4883 147.832 21.5843L146.482 21.8903C146.554 22.1543 146.608 22.4243 146.644 22.7003C146.692 22.9763 146.716 23.2643 146.716 23.5643C146.716 24.5003 146.518 25.3403 146.122 26.0843C145.738 26.8283 145.204 27.4643 144.52 27.9923C143.848 28.5083 143.05 28.9103 142.126 29.1983C141.202 29.4743 140.212 29.6123 139.156 29.6123C138.868 29.6123 138.586 29.6063 138.31 29.5943C138.034 29.5703 137.764 29.5343 137.5 29.4863C137.092 29.7383 136.888 30.0203 136.888 30.3323C136.888 30.6443 137.056 30.8723 137.392 31.0163C137.728 31.1483 138.172 31.2443 138.724 31.3043C139.276 31.3523 139.9 31.3883 140.596 31.4123C141.304 31.4243 142.024 31.4663 142.756 31.5383C143.488 31.5983 144.202 31.7063 144.898 31.8623C145.606 32.0183 146.236 32.2703 146.788 32.6183C147.34 32.9663 147.784 33.4343 148.12 34.0223C148.456 34.5983 148.624 35.3363 148.624 36.2363C148.624 37.0763 148.42 37.8983 148.012 38.7023C147.604 39.5063 147.004 40.2203 146.212 40.8443C145.42 41.4683 144.448 41.9663 143.296 42.3383C142.144 42.7223 140.824 42.9143 139.336 42.9143C137.872 42.9143 136.606 42.7763 135.538 42.5003C134.482 42.2243 133.6 41.8583 132.892 41.4023C132.196 40.9583 131.68 40.4423 131.344 39.8543C131.008 39.2663 130.84 38.6543 130.84 38.0183C130.84 37.1903 131.08 36.5003 131.56 35.9483C132.04 35.3963 132.712 34.9523 133.576 34.6163C133.12 34.3403 132.76 33.9863 132.496 33.5543C132.232 33.1223 132.1 32.5643 132.1 31.8803C132.1 31.6043 132.148 31.3163 132.244 31.0163C132.34 30.7043 132.49 30.4043 132.694 30.1163C132.91 29.8163 133.174 29.5343 133.486 29.2703C133.798 29.0063 134.17 28.7723 134.602 28.5683C133.63 28.0523 132.862 27.3743 132.298 26.5343C131.734 25.6823 131.452 24.6923 131.452 23.5643C131.452 22.6283 131.65 21.7883 132.046 21.0443C132.442 20.2883 132.982 19.6523 133.666 19.1363C134.362 18.6083 135.178 18.2063 136.114 17.9303C137.05 17.6423 138.064 17.4983 139.156 17.4983C140.74 17.4983 142.144 17.7983 143.368 18.3983H148.984ZM156.46 19.8383C156.82 19.5023 157.192 19.1903 157.576 18.9023C157.96 18.6143 158.368 18.3743 158.8 18.1823C159.244 17.9783 159.718 17.8223 160.222 17.7143C160.738 17.5943 161.296 17.5343 161.896 17.5343C162.916 17.5343 163.816 17.7143 164.596 18.0743C165.388 18.4223 166.054 18.9143 166.594 19.5503C167.134 20.1743 167.542 20.9243 167.818 21.8003C168.094 22.6643 168.232 23.6063 168.232 24.6263V36.4883H162.652V24.6263C162.652 23.7143 162.442 23.0063 162.022 22.5023C161.602 21.9863 160.984 21.7283 160.168 21.7283C159.556 21.7283 158.98 21.8603 158.44 22.1243C157.912 22.3763 157.396 22.7243 156.892 23.1683V36.4883H151.312V17.8223H154.768C155.464 17.8223 155.92 18.1343 156.136 18.7583L156.46 19.8383ZM183.453 24.9143C183.453 24.4703 183.393 24.0383 183.273 23.6183C183.165 23.1983 182.979 22.8263 182.715 22.5023C182.463 22.1663 182.127 21.8963 181.707 21.6923C181.287 21.4883 180.777 21.3863 180.177 21.3863C179.121 21.3863 178.293 21.6923 177.693 22.3043C177.093 22.9043 176.697 23.7743 176.505 24.9143H183.453ZM176.433 28.1543C176.613 29.7143 177.087 30.8483 177.855 31.5563C178.623 32.2523 179.613 32.6003 180.825 32.6003C181.473 32.6003 182.031 32.5223 182.499 32.3663C182.967 32.2103 183.381 32.0363 183.741 31.8443C184.113 31.6523 184.449 31.4783 184.749 31.3223C185.061 31.1663 185.385 31.0883 185.721 31.0883C186.165 31.0883 186.501 31.2503 186.729 31.5743L188.349 33.5723C187.773 34.2323 187.149 34.7723 186.477 35.1923C185.817 35.6003 185.133 35.9243 184.425 36.1643C183.729 36.3923 183.027 36.5483 182.319 36.6323C181.623 36.7283 180.957 36.7763 180.321 36.7763C179.013 36.7763 177.783 36.5663 176.631 36.1463C175.491 35.7143 174.489 35.0783 173.625 34.2383C172.773 33.3983 172.095 32.3543 171.591 31.1063C171.099 29.8583 170.853 28.4063 170.853 26.7503C170.853 25.5023 171.063 24.3203 171.483 23.2043C171.915 22.0883 172.527 21.1103 173.319 20.2703C174.123 19.4303 175.089 18.7643 176.217 18.2723C177.357 17.7803 178.641 17.5343 180.069 17.5343C181.305 17.5343 182.433 17.7263 183.453 18.1103C184.485 18.4943 185.367 19.0523 186.099 19.7843C186.843 20.5163 187.419 21.4163 187.827 22.4843C188.247 23.5403 188.457 24.7403 188.457 26.0843C188.457 26.5043 188.439 26.8463 188.403 27.1103C188.367 27.3743 188.301 27.5843 188.205 27.7403C188.109 27.8963 187.977 28.0043 187.809 28.0643C187.653 28.1243 187.449 28.1543 187.197 28.1543H176.433ZM196.469 20.7023C197.045 19.6943 197.705 18.9023 198.449 18.3263C199.205 17.7503 200.069 17.4623 201.041 17.4623C201.881 17.4623 202.565 17.6603 203.093 18.0563L202.733 22.1603C202.673 22.4243 202.571 22.6043 202.427 22.7003C202.295 22.7963 202.109 22.8443 201.869 22.8443C201.773 22.8443 201.647 22.8383 201.491 22.8263C201.335 22.8143 201.173 22.8023 201.005 22.7903C200.837 22.7663 200.663 22.7483 200.483 22.7363C200.315 22.7123 200.159 22.7003 200.015 22.7003C199.199 22.7003 198.545 22.9163 198.053 23.3483C197.573 23.7803 197.165 24.3803 196.829 25.1483V36.4883H191.249V17.8223H194.561C194.837 17.8223 195.065 17.8463 195.245 17.8943C195.437 17.9423 195.593 18.0203 195.713 18.1283C195.845 18.2243 195.941 18.3563 196.001 18.5243C196.073 18.6923 196.133 18.8963 196.181 19.1363L196.469 20.7023ZM210.215 20.7023C210.791 19.6943 211.451 18.9023 212.195 18.3263C212.951 17.7503 213.815 17.4623 214.787 17.4623C215.627 17.4623 216.311 17.6603 216.839 18.0563L216.479 22.1603C216.419 22.4243 216.317 22.6043 216.173 22.7003C216.041 22.7963 215.855 22.8443 215.615 22.8443C215.519 22.8443 215.393 22.8383 215.237 22.8263C215.081 22.8143 214.919 22.8023 214.751 22.7903C214.583 22.7663 214.409 22.7483 214.229 22.7363C214.061 22.7123 213.905 22.7003 213.761 22.7003C212.945 22.7003 212.291 22.9163 211.799 23.3483C211.319 23.7803 210.911 24.3803 210.575 25.1483V36.4883H204.995V17.8223H208.307C208.583 17.8223 208.811 17.8463 208.991 17.8943C209.183 17.9423 209.339 18.0203 209.459 18.1283C209.591 18.2243 209.687 18.3563 209.747 18.5243C209.819 18.6923 209.879 18.8963 209.927 19.1363L210.215 20.7023Z" fill="white"/>
<g clip-path="url(#clip0_841_122)">
<path fill-rule="evenodd" clip-rule="evenodd" d="M26.8079 17.0884C26.9472 16.9487 27.1127 16.8379 27.295 16.7622C27.4772 16.6866 27.6726 16.6477 27.8699 16.6477C28.0672 16.6477 28.2625 16.6866 28.4448 16.7622C28.627 16.8379 28.7925 16.9487 28.9319 17.0884L34.9319 23.0884C35.0716 23.2277 35.1824 23.3932 35.258 23.5755C35.3336 23.7577 35.3725 23.9531 35.3725 24.1504C35.3725 24.3477 35.3336 24.5431 35.258 24.7253C35.1824 24.9075 35.0716 25.073 34.9319 25.2124L28.9319 31.2124C28.6502 31.494 28.2682 31.6523 27.8699 31.6523C27.4715 31.6523 27.0895 31.494 26.8079 31.2124C26.5262 30.9307 26.368 30.5487 26.368 30.1504C26.368 29.7521 26.5262 29.37 26.8079 29.0884L31.7489 24.1504L26.8079 19.2124C26.6682 19.073 26.5574 18.9075 26.4817 18.7253C26.4061 18.5431 26.3672 18.3477 26.3672 18.1504C26.3672 17.9531 26.4061 17.7577 26.4817 17.5755C26.5574 17.3932 26.6682 17.2277 26.8079 17.0884ZM22.9319 17.0884C22.7925 16.9487 22.627 16.8379 22.4448 16.7622C22.2625 16.6866 22.0672 16.6477 21.8699 16.6477C21.6726 16.6477 21.4772 16.6866 21.295 16.7622C21.1127 16.8379 20.9472 16.9487 20.8079 17.0884L14.8079 23.0884C14.6682 23.2277 14.5573 23.3932 14.4817 23.5755C14.4061 23.7577 14.3672 23.9531 14.3672 24.1504C14.3672 24.3477 14.4061 24.5431 14.4817 24.7253C14.5573 24.9075 14.6682 25.073 14.8079 25.2124L20.8079 31.2124C21.0895 31.494 21.4715 31.6523 21.8699 31.6523C22.2682 31.6523 22.6502 31.494 22.9319 31.2124C23.2135 30.9307 23.3718 30.5487 23.3718 30.1504C23.3718 29.7521 23.2135 29.37 22.9319 29.0884L17.9909 24.1504L22.9319 19.2124C23.0716 19.073 23.1824 18.9075 23.258 18.7253C23.3336 18.5431 23.3725 18.3477 23.3725 18.1504C23.3725 17.9531 23.3336 17.7577 23.258 17.5755C23.1824 17.3932 23.0716 17.2277 22.9319 17.0884Z" fill="white"/>
<path d="M9.87109 0.150391H39.8711C41.4624 0.150391 42.9885 0.782532 44.1137 1.90775C45.239 3.03297 45.8711 4.55909 45.8711 6.15039V42.1504C45.8711 43.7417 45.239 45.2678 44.1137 46.393C42.9885 47.5182 41.4624 48.1504 39.8711 48.1504H9.87109C8.27979 48.1504 6.75367 47.5182 5.62845 46.393C4.50323 45.2678 3.87109 43.7417 3.87109 42.1504V39.1504H6.87109V42.1504C6.87109 42.946 7.18716 43.7091 7.74977 44.2717C8.31238 44.8343 9.07544 45.1504 9.87109 45.1504H39.8711C40.6667 45.1504 41.4298 44.8343 41.9924 44.2717C42.555 43.7091 42.8711 42.946 42.8711 42.1504V6.15039C42.8711 5.35474 42.555 4.59168 41.9924 4.02907C41.4298 3.46646 40.6667 3.15039 39.8711 3.15039H9.87109C9.07544 3.15039 8.31238 3.46646 7.74977 4.02907C7.18716 4.59168 6.87109 5.35474 6.87109 6.15039V9.15039H3.87109V6.15039C3.87109 4.55909 4.50323 3.03297 5.62845 1.90775C6.75367 0.782532 8.27979 0.150391 9.87109 0.150391V0.150391Z" fill="white"/>
<path d="M3.87109 15.1504V13.6504C3.87109 13.2526 4.02913 12.871 4.31043 12.5897C4.59174 12.3084 4.97327 12.1504 5.37109 12.1504C5.76892 12.1504 6.15045 12.3084 6.43175 12.5897C6.71306 12.871 6.87109 13.2526 6.87109 13.6504V15.1504H8.37109C8.76892 15.1504 9.15045 15.3084 9.43175 15.5897C9.71306 15.871 9.87109 16.2526 9.87109 16.6504C9.87109 17.0482 9.71306 17.4297 9.43175 17.7111C9.15045 17.9924 8.76892 18.1504 8.37109 18.1504H2.37109C1.97327 18.1504 1.59174 17.9924 1.31043 17.7111C1.02913 17.4297 0.871094 17.0482 0.871094 16.6504C0.871094 16.2526 1.02913 15.871 1.31043 15.5897C1.59174 15.3084 1.97327 15.1504 2.37109 15.1504H3.87109ZM3.87109 24.1504V22.6504C3.87109 22.2526 4.02913 21.871 4.31043 21.5897C4.59174 21.3084 4.97327 21.1504 5.37109 21.1504C5.76892 21.1504 6.15045 21.3084 6.43175 21.5897C6.71306 21.871 6.87109 22.2526 6.87109 22.6504V24.1504H8.37109C8.76892 24.1504 9.15045 24.3084 9.43175 24.5897C9.71306 24.871 9.87109 25.2526 9.87109 25.6504C9.87109 26.0482 9.71306 26.4297 9.43175 26.7111C9.15045 26.9924 8.76892 27.1504 8.37109 27.1504H2.37109C1.97327 27.1504 1.59174 26.9924 1.31043 26.7111C1.02913 26.4297 0.871094 26.0482 0.871094 25.6504C0.871094 25.2526 1.02913 24.871 1.31043 24.5897C1.59174 24.3084 1.97327 24.1504 2.37109 24.1504H3.87109ZM3.87109 33.1504V31.6504C3.87109 31.2526 4.02913 30.871 4.31043 30.5897C4.59174 30.3084 4.97327 30.1504 5.37109 30.1504C5.76892 30.1504 6.15045 30.3084 6.43175 30.5897C6.71306 30.871 6.87109 31.2526 6.87109 31.6504V33.1504H8.37109C8.76892 33.1504 9.15045 33.3084 9.43175 33.5897C9.71306 33.871 9.87109 34.2526 9.87109 34.6504C9.87109 35.0482 9.71306 35.4297 9.43175 35.7111C9.15045 35.9924 8.76892 36.1504 8.37109 36.1504H2.37109C1.97327 36.1504 1.59174 35.9924 1.31043 35.7111C1.02913 35.4297 0.871094 35.0482 0.871094 34.6504C0.871094 34.2526 1.02913 33.871 1.31043 33.5897C1.59174 33.3084 1.97327 33.1504 2.37109 33.1504H3.87109Z" fill="white"/>
</g>
<defs>
<clipPath id="clip0_841_122">
<rect width="48" height="48" fill="white" transform="translate(0.871094 0.150391)"/>
</clipPath>
</defs>
</svg>
