<svg width="106" height="73" viewBox="0 0 106 73" fill="none" xmlns="http://www.w3.org/2000/svg">
<path d="M82.983 72.7366C76.3564 72.7366 70.8342 70.4775 66.4165 65.9594C62.0992 61.3409 59.9405 54.7645 59.9405 46.2302C59.9405 38.3988 61.4466 31.471 64.4586 25.4468C67.4707 19.4226 71.2358 14.3021 75.754 10.0852C80.2721 5.86826 84.8404 2.60516 89.459 0.295898L97.441 9.33217C94.9309 10.3362 92.0694 12.2438 88.8565 15.0551C85.7441 17.766 82.983 20.9287 80.5733 24.5432C78.264 28.0573 77.009 31.6216 76.8082 35.2361C77.7118 34.0313 79.2681 33.0272 81.4769 32.224C83.6858 31.4208 85.9951 31.0192 88.4047 31.0192C92.9229 31.0192 96.939 32.6758 100.453 35.9891C104.068 39.202 105.875 43.7704 105.875 49.6941C105.875 56.7223 103.666 62.3449 99.2482 66.5618C94.9309 70.6783 89.5092 72.7366 82.983 72.7366ZM23.0425 72.7366C16.4159 72.7366 10.8937 70.4775 6.47599 65.9594C2.15866 61.3409 0 54.7645 0 46.2302C0 38.3988 1.50604 31.471 4.51813 25.4468C7.53022 19.4226 11.2953 14.3021 15.8135 10.0852C20.3316 5.86826 24.8999 2.60516 29.5184 0.295898L37.5005 9.33217C34.9904 10.3362 32.1289 12.2438 28.916 15.0551C25.8035 17.766 23.0425 20.9287 20.6328 24.5432C18.3235 28.0573 17.0685 31.6216 16.8677 35.2361C17.7713 34.0313 19.3276 33.0272 21.5364 32.224C23.7453 31.4208 26.0545 31.0192 28.4642 31.0192C32.9823 31.0192 36.9985 32.6758 40.5126 35.9891C44.1271 39.202 45.9343 43.7704 45.9343 49.6941C45.9343 56.7223 43.7255 62.3449 39.3077 66.5618C34.9904 70.6783 29.5686 72.7366 23.0425 72.7366Z" fill="#333333"/>
</svg>
